inDegrees=no
num_controls=7
num_derivatives=13
num_iterations=134
num_multipliers=7
num_parameters=0
num_slacks=7
num_states=26
objective=5.713978
objective_accelerations=0.482500
objective_balance=0.040162
objective_effort=0.482095
objective_height=4.661197
objective_ligament=0.048023
solver_duration=1443.810264
status=Solve_Succeeded
success=true
DataType=double
version=3
OpenSimVersion=4.4-2022-07-23-0e9fedc
endheader
time	/jointset/ground_pelvis/pelvis_tilt/value	/jointset/ground_pelvis/pelvis_tx/value	/jointset/ground_pelvis/pelvis_ty/value	/jointset/hip_l/hip_flexion_l/value	/jointset/hip_l/hip_adduction_l/value	/jointset/hip_l/hip_rotation_l/value	/jointset/back/lumbar_extension/value	/jointset/patellofemoral_l/patellar_flexion_l/value	/jointset/knee_l/knee_flexion_l/value	/jointset/knee_l/knee_adduction_l/value	/jointset/knee_l/knee_rotation_l/value	/jointset/ankle_l/ankle_angle_l/value	/jointset/subtalar_l/subtalar_angle_l/value	/jointset/ground_pelvis/pelvis_tilt/speed	/jointset/ground_pelvis/pelvis_tx/speed	/jointset/ground_pelvis/pelvis_ty/speed	/jointset/hip_l/hip_flexion_l/speed	/jointset/hip_l/hip_adduction_l/speed	/jointset/hip_l/hip_rotation_l/speed	/jointset/back/lumbar_extension/speed	/jointset/patellofemoral_l/patellar_flexion_l/speed	/jointset/knee_l/knee_flexion_l/speed	/jointset/knee_l/knee_adduction_l/speed	/jointset/knee_l/knee_rotation_l/speed	/jointset/ankle_l/ankle_angle_l/speed	/jointset/subtalar_l/subtalar_angle_l/speed	/forceset/tau_hip_flexion_l	/forceset/tau_hip_adduction_l	/forceset/tau_hip_rotation_l	/forceset/tau_knee_flexion_l	/forceset/tau_ankle_angle_l	/forceset/tau_subtalar_angle_l	/forceset/tau_lumbar_extension	lambda_cid13_p0	lambda_cid13_p1	lambda_cid13_p2	lambda_cid13_p3	lambda_cid13_p4	lambda_cid13_p5	lambda_cid14_p0	/jointset/ground_pelvis/pelvis_tilt/accel	/jointset/ground_pelvis/pelvis_tx/accel	/jointset/ground_pelvis/pelvis_ty/accel	/jointset/hip_l/hip_flexion_l/accel	/jointset/hip_l/hip_adduction_l/accel	/jointset/hip_l/hip_rotation_l/accel	/jointset/back/lumbar_extension/accel	/jointset/patellofemoral_l/patellar_flexion_l/accel	/jointset/knee_l/knee_flexion_l/accel	/jointset/knee_l/knee_adduction_l/accel	/jointset/knee_l/knee_rotation_l/accel	/jointset/ankle_l/ankle_angle_l/accel	/jointset/subtalar_l/subtalar_angle_l/accel	gamma_cid13_p0	gamma_cid13_p1	gamma_cid13_p2	gamma_cid13_p3	gamma_cid13_p4	gamma_cid13_p5	gamma_cid14_p0
0	-0.03681019006016974	0.05667212530862585	0.9203418142180055	0.3085811930696054	-0.2956369292180155	-0.3015289310290067	-0.3879500408040475	0.2499276582270334	0.249927658227084	-0.1745328787957021	-0.1744561152763112	-0.0008036543073733089	0.0004402751029759576	0	0	0	0	0	0	0	0	0	0	0	0	0	0.06679535608359337	-0.02906223387943873	-0.01912072264985328	-0.235315698020606	0.1807949209806998	-0.02644956336636926	0.007030695139541161	13.85381635451178	6.247295090439887	1.764021849269054	14.33331348942063	-625.9992764867681	-61.6721195247226	-23.19431713164613	-1.192125927643178	-2.061765603704337	-0.8890096190100175	8.960126778391798	-0.803915870615867	3.022574585960022	-6.955268698993353	8.43326440883286	8.433264408828478	1.036615428327856	-0.06944820849876107	1.094666280680317	-0.4915716195697999	-5.684413383610789e-10	1.265960496926129e-07	3.854462275057266e-08	-3.839098489100114e-09	8.182343748213759e-08	1.81826430885742e-08	4.221821459267033e-09
0.01	-0.03686605341970231	0.0565704578428252	0.9202982842609544	0.3090183370303766	-0.2956774842694114	-0.301377142771458	-0.3882977910521706	0.2503412724812322	0.2503412724816321	-0.1744846715421083	-0.174456637197051	-0.0007504888640797768	0.0004147741331761623	-0.01111591654807729	-0.02020992359875814	-0.008675808825883256	0.08700687046558744	-0.008089846709622078	0.03023060194931727	-0.06921057322631238	0.08238596554846077	0.08238596554846207	0.009564611145365925	-0.0001092769988585894	0.01063775920896234	-0.005075484205609908	0.06371019071498837	-0.04578353013362953	-0.0187344789219944	-0.2343728428407387	0.1756269472572608	-0.009066286468641037	0.01038928982507773	12.77902486338992	-0.9560080209549781	2.731876255646726	13.0848207717339	-628.0770645955145	-76.65447020593651	-23.19912086097495	-1.062817361306349	-1.98207106753627	-0.8523227620628291	8.507674234403904	-0.8083693536545443	3.00424592296314	-6.853030179197114	8.090728976838848	8.090728976841042	0.9048829581801189	0.01760114177829409	1.049034201435463	-0.5118549361566012	-2.617005269321119e-08	1.234541246036915e-07	1.109725522190216e-07	1.601077216822479e-08	-3.788627639261938e-09	-2.183632409165743e-08	-5.861244302624204e-09
0.02	-0.03703137451324455	0.05627039807512427	0.920168904966111	0.3103128911069791	-0.2957983078444376	-0.3009268599098319	-0.3893274627414088	0.251568639661529	0.2515686396615388	-0.1743431183768443	-0.174458398169294	-0.0005908051366156605	0.0003392546983005138	-0.02189154681345657	-0.03967846038005583	-0.01716986755841724	0.1714820230814095	-0.01605370472010583	0.05969892084060236	-0.1363842882427647	0.1627505850564016	0.1627505850564345	0.01866918231235951	-0.0002478105034791092	0.02130365683520534	-0.01000369301520132	0.06062502534997007	-0.06250482638758831	-0.01834823519991458	-0.2334299876578506	0.1704589735346582	0.008316990429690883	0.01374788451271625	11.76915991414526	-8.169803360187114	3.700402738952299	11.75488472164504	-629.1670117908922	-91.55796022806273	-23.21329569611927	-1.12406867110529	-1.913488240210805	-0.852659600340166	8.453783208438546	-0.7787181307884657	2.870117974353495	-6.547897057022411	8.028995200728623	8.028995200730288	0.9446074326528101	-0.07529950965120841	1.100293964137959	-0.4621165403658418	-5.177166404806129e-08	1.203121995147701e-07	1.834004816874705e-07	3.586064282554969e-08	-8.940069276066146e-08	-6.185529127188907e-08	-1.594431006451544e-08
0.03	-0.03730289411176125	0.05577959531237785	0.9199553797980782	0.3124392669888554	-0.2959976793915966	-0.3001863181162846	-0.3910166064536153	0.2535890544601905	0.2535890544600736	-0.174112259208061	-0.1744618880575456	-0.0003242519411318346	0.0002156898601026561	-0.03234872359044955	-0.05833501978092165	-0.02551282734703442	0.2533183147945298	-0.02375960395243073	0.08826425117127285	-0.2009211837157364	0.2409418823972222	0.2409418823972357	0.02746627875871156	-0.000435056152763856	0.03202083677163756	-0.01464071577089078	0.05410369019682734	-0.05354382311774201	-0.01770378374534182	-0.2287753178458727	0.1685535925118627	0.003387063429152356	0.01979153755666659	10.9146874126254	-5.967046948459146	3.449652124520322	11.202945681113	-630.9774749107409	-86.0484140978057	-23.2363111878213	-0.9970015784097611	-1.819671675649202	-0.8217815889630636	7.977317325160048	-0.7574147617870205	2.827939384937211	-6.328095222496761	7.655626392643688	7.655626392640287	0.8418418027115413	0.01185816598064992	1.059508327566746	-0.4542513399710088	-7.249118082974401e-08	1.061473445766512e-07	2.31031896125039e-07	5.540929626814904e-08	-1.760816410985319e-07	-9.30965826695979e-08	-2.292586709935515e-08
0.04	-0.03767707735745464	0.05510664057850278	0.9196590915479887	0.315369758822228	-0.2962722877195448	-0.2991644832548873	-0.3933354210065896	0.2563796681103125	0.2563796681103195	-0.1737945128643789	-0.1744667913509632	4.988871755335284e-05	4.780355498815096e-05	-0.04242427626413468	-0.07610885460578473	-0.03372248396972858	0.3323052134041837	-0.03110106087802599	0.1159575344024515	-0.2623184563914481	0.316790355413412	0.3167903554134058	0.03604661728845222	-0.0005304914600739562	0.04282114947491216	-0.01886798639859686	0.04758235504218332	-0.04458281984792796	-0.01705933228844024	-0.2241206480351147	0.1666482114887429	-0.001542863571562389	0.02583519059969469	10.12115945527398	-3.772001726852491	3.196750144230913	10.56596146167982	-631.8797815008	-80.46091623030378	-23.26741980036557	-1.047743850445368	-1.736943325008899	-0.8259989671555542	7.883904587745145	-0.7058296694426796	2.695708554455067	-5.919972497571512	7.560430335802196	7.560430335803802	0.9012558493301642	-0.05693744125626782	1.11692051750787	-0.3801661147688221	-9.311003586765009e-08	9.175521273442518e-08	2.781520422114555e-07	7.495173904652723e-08	-2.62784628265608e-07	-1.241568910614815e-07	-2.98434755006474e-08
